<?xml version="1.0" encoding="UTF-8"?>
<svg xmlns="http://www.w3.org/2000/svg" viewBox="0 0 462.29 139">
  <g id="Layer_1" data-name="Layer 1">
    <g>
      <rect x="155.33" y="9.03" width="306.96" height="120.29" fill="none"/>
      <path d="M205.73,111.33l-17.52-31.8h-4.92v31.8h-20.52V27.09h34.44c6.64,0,12.3,1.16,16.98,3.48,4.68,2.32,8.18,5.5,10.5,9.54,2.32,4.04,3.48,8.54,3.48,13.5,0,5.6-1.58,10.6-4.74,15-3.16,4.4-7.82,7.52-13.98,9.36l19.44,33.36h-23.16ZM183.29,65.01h12.72c3.76,0,6.58-.92,8.46-2.76,1.88-1.84,2.82-4.44,2.82-7.8s-.94-5.72-2.82-7.56c-1.88-1.84-4.7-2.76-8.46-2.76h-12.72v20.88Z" fill="#6cace4"/>
      <path d="M240.83,59.61c2.6-5.2,6.14-9.2,10.62-12,4.48-2.8,9.48-4.2,15-4.2,4.72,0,8.86.96,12.42,2.88,3.56,1.92,6.3,4.44,8.22,7.56v-9.48h20.52v66.96h-20.52v-9.48c-2,3.12-4.78,5.64-8.34,7.56-3.56,1.92-7.7,2.88-12.42,2.88-5.44,0-10.4-1.42-14.88-4.26-4.48-2.84-8.02-6.88-10.62-12.12-2.6-5.24-3.9-11.3-3.9-18.18s1.3-12.92,3.9-18.12ZM282.83,65.73c-2.84-2.96-6.3-4.44-10.38-4.44s-7.54,1.46-10.38,4.38c-2.84,2.92-4.26,6.94-4.26,12.06s1.42,9.18,4.26,12.18c2.84,3,6.3,4.5,10.38,4.5s7.54-1.48,10.38-4.44c2.84-2.96,4.26-7,4.26-12.12s-1.42-9.16-4.26-12.12Z" fill="#6cace4"/>
      <path d="M343.01,22.53v88.8h-20.52V22.53h20.52Z" fill="#6cace4"/>
      <path d="M359.39,34.23c-2.28-2.12-3.42-4.74-3.42-7.86s1.14-5.86,3.42-7.98c2.28-2.12,5.22-3.18,8.82-3.18s6.42,1.06,8.7,3.18c2.28,2.12,3.42,4.78,3.42,7.98s-1.14,5.74-3.42,7.86c-2.28,2.12-5.18,3.18-8.7,3.18s-6.54-1.06-8.82-3.18ZM378.41,44.37v66.96h-20.52V44.37h20.52Z" fill="#6cace4"/>
      <path d="M406.07,108.09c-5.24-2.8-9.36-6.8-12.36-12-3-5.2-4.5-11.28-4.5-18.24s1.52-12.94,4.56-18.18c3.04-5.24,7.2-9.26,12.48-12.06,5.28-2.8,11.2-4.2,17.76-4.2s12.48,1.4,17.76,4.2c5.28,2.8,9.44,6.82,12.48,12.06,3.04,5.24,4.56,11.3,4.56,18.18s-1.54,12.94-4.62,18.18c-3.08,5.24-7.28,9.26-12.6,12.06-5.32,2.8-11.26,4.2-17.82,4.2s-12.46-1.4-17.7-4.2ZM433.79,90.21c2.76-2.88,4.14-7,4.14-12.36s-1.34-9.48-4.02-12.36c-2.68-2.88-5.98-4.32-9.9-4.32s-7.32,1.42-9.96,4.26c-2.64,2.84-3.96,6.98-3.96,12.42s1.3,9.48,3.9,12.36c2.6,2.88,5.86,4.32,9.78,4.32s7.26-1.44,10.02-4.32Z" fill="#6cace4"/>
    </g>
  </g>
  <g id="Layer_8" data-name="Layer 8">
    <rect width="139" height="139" fill="#6cace4"/>
  </g>
  <g id="Layer_5" data-name="Layer 5">
    <g>
      <rect x="7.18" y="9.2" width="125.04" height="113.89" fill="none"/>
      <path d="M38.38,96.02l-24.36-26.52,24.36-26.52h25.8l-24.48,26.52,24.48,26.52h-25.8Z" fill="#fff"/>
      <path d="M74.86,42.98h25.8l24.36,26.52-24.36,26.52h-25.8l24.48-26.52-24.48-26.52Z" fill="#fff"/>
    </g>
  </g>
</svg>